<svg width="49" height="43" viewBox="0 0 49 43" fill="none" xmlns="http://www.w3.org/2000/svg">
<path d="M0.469727 12.5H12.4697L27.4697 0.5V42.5L12.4697 30.5H0.469727V12.5ZM38.5397 5.12C38.9297 5.27 48.4697 9.26 48.4697 21.5C48.4697 33.74 38.9297 37.73 38.5397 37.88C38.359 37.9585 38.1642 37.9998 37.9671 38.0013C37.7701 38.0029 37.5747 37.9647 37.3927 37.8891C37.2107 37.8135 37.0458 37.702 36.9078 37.5613C36.7699 37.4206 36.6617 37.2535 36.5897 37.07C36.2597 36.29 36.6497 35.42 37.3997 35.12C37.7297 34.97 45.4697 31.67 45.4697 21.5C45.4697 11.27 37.4897 7.91 37.3997 7.88C37.2173 7.80669 37.0513 7.69774 36.9115 7.55952C36.7717 7.4213 36.6608 7.2566 36.5854 7.07503C36.51 6.89347 36.4715 6.69868 36.4723 6.50208C36.473 6.30547 36.5129 6.11099 36.5897 5.93C36.8897 5.18 37.7597 4.79 38.5397 5.12V5.12ZM42.4697 21.5C42.4697 29.21 35.7797 31.79 35.5097 31.91C35.3297 31.97 35.1497 32 34.9697 32C34.3697 32 33.7997 31.64 33.5597 31.04C33.2597 30.26 33.6797 29.39 34.4297 29.09C34.6397 29.03 39.4697 27.08 39.4697 21.5C39.4697 15.92 34.6397 13.97 34.4297 13.91C34.064 13.7565 33.7704 13.4694 33.6088 13.1072C33.4472 12.7449 33.4297 12.3347 33.5597 11.96C33.8597 11.21 34.7297 10.79 35.5097 11.09C35.7797 11.21 42.4697 13.79 42.4697 21.5Z" fill="#367BA3"/>
</svg>
