<svg width="49" height="44" viewBox="0 0 49 44" fill="none" xmlns="http://www.w3.org/2000/svg">
<path d="M34.1837 27.9997L34.3192 28.2392H34.5845L48.4697 28.1778L32.9109 0.290285L32.7783 0.0507812H32.5158L19.418 0.106276L18.6278 0.112118L19.0201 0.818945L34.1837 27.9997Z" fill="#367BA3"/>
<path d="M17.084 30.973L16.9542 31.2125L10.4518 42.9774L10.0567 43.6872H41.4424L41.5751 43.4506L48.0746 31.6857L48.4697 30.973H17.084Z" fill="#367BA3"/>
<path d="M23.1574 13.942L23.29 14.1815L23.1574 14.4181L7.99372 41.6017L7.59579 42.3085L7.20068 41.6046L0.605192 29.8923L0.469727 29.6558L0.605192 29.4162L16.164 1.52869L16.5591 2.23552L23.1574 13.942Z" fill="#367BA3"/>
</svg>
