<svg width="40" height="49" viewBox="0 0 40 49" fill="none" xmlns="http://www.w3.org/2000/svg">
<path d="M21.6873 36.3903L19.4697 33.0562L17.5157 36.3903H14.5072L17.9965 30.8541L14.4297 25.5039H17.5157L19.7023 28.7915L21.6253 25.5039H24.6337L21.1755 30.9936L24.7733 36.3903H21.6873Z" fill="#367BA3"/>
<path fill-rule="evenodd" clip-rule="evenodd" d="M2.25013 2.12317C3.47764 0.895663 5.1425 0.206055 6.87846 0.206055H22.1512C22.7298 0.206055 23.2848 0.435924 23.694 0.845094L38.9667 16.1178C39.3759 16.527 39.6057 17.0819 39.6057 17.6606V41.6606C39.6057 43.3966 38.9161 45.0614 37.6886 46.2889C36.4611 47.5164 34.7962 48.2061 33.0603 48.2061H6.87846C5.1425 48.2061 3.47764 47.5164 2.25013 46.2889C1.02262 45.0614 0.333008 43.3966 0.333008 41.6606V6.75151C0.333008 5.01555 1.02262 3.35068 2.25013 2.12317ZM6.87846 4.56969C6.29981 4.56969 5.74485 4.79956 5.33568 5.20873C4.92651 5.6179 4.69664 6.17285 4.69664 6.75151V41.6606C4.69664 42.2393 4.92651 42.7942 5.33568 43.2034C5.74485 43.6126 6.29981 43.8424 6.87846 43.8424H33.0603C33.6389 43.8424 34.1939 43.6126 34.6031 43.2034C35.0122 42.7942 35.2421 42.2393 35.2421 41.6606V19.8424H22.1512C20.9462 19.8424 19.9694 18.8656 19.9694 17.6606V4.56969H6.87846ZM24.333 7.65525L32.1565 15.4788H24.333V7.65525Z" fill="#367BA3"/>
</svg>
