<svg width="49" height="49" viewBox="0 0 49 49" fill="none" xmlns="http://www.w3.org/2000/svg">
<path d="M22.9884 2.95497C22.3235 1.62517 23.2905 0.0605469 24.7772 0.0605469H46.9697C48.0743 0.0605469 48.9697 0.955977 48.9697 2.06055V24.2531C48.9697 25.7398 47.4051 26.7068 46.0753 26.0419L42.1126 24.0605V13.5005L24.3268 31.2546C23.5455 32.0344 22.2802 32.0339 21.4996 31.2533L19.4914 29.245C18.7108 28.4644 18.7102 27.199 19.4902 26.4178L38.9583 6.91769H24.9697L22.9884 2.95497ZM29.8269 41.2034C30.9314 41.2034 31.8269 40.308 31.8269 39.2034V30.9177L35.2698 27.4748C36.5297 26.2148 38.684 27.1072 38.684 28.889V46.0605C38.684 47.1651 37.7886 48.0605 36.684 48.0605H2.96973C1.86516 48.0605 0.969727 47.1651 0.969727 46.0605V12.3463C0.969727 11.2417 1.86516 10.3463 2.96973 10.3463H23.5699C25.3517 10.3463 26.244 12.5005 24.9841 13.7605L21.5412 17.2034H9.82687C8.7223 17.2034 7.82687 18.0988 7.82687 19.2034V39.2034C7.82687 40.308 8.7223 41.2034 9.82687 41.2034H29.8269Z" fill="#367BA3"/>
</svg>
