<svg width="41" height="49" viewBox="0 0 41 49" fill="none" xmlns="http://www.w3.org/2000/svg">
<path fill-rule="evenodd" clip-rule="evenodd" d="M2.75013 2.81165C3.97764 1.58414 5.6425 0.894531 7.37846 0.894531H22.6512C23.2298 0.894531 23.7848 1.1244 24.194 1.53357L39.4667 16.8063C39.8759 17.2155 40.1057 17.7704 40.1057 18.3491V42.3491C40.1057 44.085 39.4161 45.7499 38.1886 46.9774C36.9611 48.2049 35.2962 48.8945 33.5603 48.8945H7.37846C5.6425 48.8945 3.97764 48.2049 2.75013 46.9774C1.52262 45.7499 0.833008 44.085 0.833008 42.3491V7.43999C0.833008 5.70402 1.52262 4.03916 2.75013 2.81165ZM7.37846 5.25817C6.79981 5.25817 6.24485 5.48804 5.83568 5.89721C5.42651 6.30638 5.19664 6.86133 5.19664 7.43999V42.3491C5.19664 42.9277 5.42651 43.4827 5.83568 43.8919C6.24485 44.301 6.79981 44.5309 7.37846 44.5309H33.5603C34.1389 44.5309 34.6939 44.301 35.1031 43.8919C35.5122 43.4827 35.7421 42.9277 35.7421 42.3491V20.5309H22.6512C21.4462 20.5309 20.4694 19.5541 20.4694 18.3491V5.25817H7.37846ZM24.833 8.34372L32.6565 16.1673H24.833V8.34372Z" fill="#367BA3"/>
</svg>
