<svg width="49" height="49" viewBox="0 0 49 49" fill="none" xmlns="http://www.w3.org/2000/svg">
<path fill-rule="evenodd" clip-rule="evenodd" d="M7.66973 4.87813C6.34424 4.87813 5.26973 5.95264 5.26973 7.27813V40.8781C5.26973 41.9073 5.91749 42.7851 6.82754 43.1262L32.3727 17.5811C33.3099 16.6438 34.8295 16.6438 35.7668 17.5811L43.6697 25.484V7.27813C43.6697 5.95264 42.5952 4.87813 41.2697 4.87813H7.66973ZM43.6697 32.2722L34.0697 22.6722L13.4638 43.2781H41.2697C42.5952 43.2781 43.6697 42.2036 43.6697 40.8781V32.2722ZM0.469727 7.27813C0.469727 3.30167 3.69328 0.078125 7.66973 0.078125H41.2697C45.2462 0.078125 48.4697 3.30168 48.4697 7.27813V40.8781C48.4697 44.8546 45.2462 48.0781 41.2697 48.0781H7.66973C3.69328 48.0781 0.469727 44.8546 0.469727 40.8781V7.27813ZM16.0697 14.4781C15.407 14.4781 14.8697 15.0154 14.8697 15.6781C14.8697 16.3409 15.407 16.8781 16.0697 16.8781C16.7325 16.8781 17.2697 16.3409 17.2697 15.6781C17.2697 15.0154 16.7325 14.4781 16.0697 14.4781ZM10.0697 15.6781C10.0697 12.3644 12.756 9.67813 16.0697 9.67813C19.3834 9.67813 22.0697 12.3644 22.0697 15.6781C22.0697 18.9918 19.3834 21.6781 16.0697 21.6781C12.756 21.6781 10.0697 18.9918 10.0697 15.6781Z" fill="#367BA3"/>
</svg>
