<svg width="49" height="33" viewBox="0 0 49 33" fill="none" xmlns="http://www.w3.org/2000/svg">
<path d="M2.6257 27.4936C1.37888 25.5798 0.642851 23.3384 0.496716 21.0104C0.350581 18.6824 0.799864 16.3558 1.79628 14.2806C2.7927 12.2054 4.29859 10.4601 6.15211 9.23216C8.00564 8.00423 10.1367 7.34014 12.3164 7.31126C13.914 4.71302 16.1823 2.66741 18.8456 1.42301C21.5089 0.178604 24.4525 -0.211011 27.3188 0.301507C30.185 0.814024 32.8505 2.20661 34.9913 4.31003C37.1321 6.41346 38.656 9.13716 39.3779 12.1502C41.0055 12.2681 42.5795 12.8213 43.9556 13.759C45.3318 14.6968 46.4661 15.9891 47.2548 17.5177C48.0434 19.0463 48.4611 20.7622 48.4696 22.5084C48.4781 24.2545 48.0772 25.9751 47.3035 27.5124C46.4686 29.1708 45.2297 30.5563 43.7184 31.5218C42.2071 32.4874 40.4798 32.9969 38.7197 32.9963H12.4697C10.5358 32.9974 8.63045 32.4975 6.91624 31.5393C5.20204 30.5811 3.72996 29.193 2.6257 27.4936Z" fill="#367BA3"/>
</svg>
