<svg width="40" height="49" viewBox="0 0 40 49" fill="none" xmlns="http://www.w3.org/2000/svg">
<path d="M33.881 25.71V27.8345H29.4458V30.1297H32.7644V32.1922H29.4458V36.5964H26.7939V25.71H33.881Z" fill="#367BA3"/>
<path d="M19.6049 25.71C20.7525 25.71 21.7553 25.9374 22.6134 26.3923C23.4715 26.8472 24.1331 27.4882 24.5984 28.3153C25.0739 29.132 25.3117 30.078 25.3117 31.1532C25.3117 32.218 25.0739 33.164 24.5984 33.9911C24.1331 34.8181 23.4663 35.4591 22.5979 35.914C21.7398 36.3689 20.7421 36.5964 19.6049 36.5964H15.5264V25.71H19.6049ZM19.4343 34.3012C20.4371 34.3012 21.2177 34.0273 21.776 33.4793C22.3342 32.9314 22.6134 32.156 22.6134 31.1532C22.6134 30.1503 22.3342 29.3698 21.776 28.8115C21.2177 28.2532 20.4371 27.9741 19.4343 27.9741H18.1782V34.3012H19.4343Z" fill="#367BA3"/>
<path d="M14.1462 29.2147C14.1462 29.8453 14.0015 30.4243 13.712 30.9516C13.4225 31.4685 12.978 31.8872 12.3783 32.2077C11.7787 32.5282 11.0343 32.6884 10.1452 32.6884H8.50142V36.5964H5.84961V25.71H10.1452C11.0137 25.71 11.7477 25.8599 12.3473 26.1597C12.947 26.4595 13.3967 26.873 13.6965 27.4003C13.9963 27.9276 14.1462 28.5324 14.1462 29.2147ZM9.94364 30.5794C10.4502 30.5794 10.8276 30.4605 11.0757 30.2227C11.3238 29.9849 11.4479 29.6489 11.4479 29.2147C11.4479 28.7805 11.3238 28.4445 11.0757 28.2067C10.8276 27.9689 10.4502 27.85 9.94364 27.85H8.50142V30.5794H9.94364Z" fill="#367BA3"/>
<path fill-rule="evenodd" clip-rule="evenodd" d="M2.25013 2.32923C3.47764 1.10172 5.1425 0.412109 6.87846 0.412109H22.1512C22.7298 0.412109 23.2848 0.641979 23.694 1.05115L38.9667 16.3239C39.3759 16.733 39.6057 17.288 39.6057 17.8667V41.8667C39.6057 43.6026 38.9161 45.2675 37.6886 46.495C36.4611 47.7225 34.7962 48.4121 33.0603 48.4121H6.87846C5.1425 48.4121 3.47764 47.7225 2.25013 46.495C1.02262 45.2675 0.333008 43.6026 0.333008 41.8667V6.95756C0.333008 5.2216 1.02262 3.55674 2.25013 2.32923ZM6.87846 4.77575C6.29981 4.77575 5.74485 5.00561 5.33568 5.41478C4.92651 5.82395 4.69664 6.37891 4.69664 6.95756V41.8667C4.69664 42.4453 4.92651 43.0003 5.33568 43.4094C5.74485 43.8186 6.29981 44.0485 6.87846 44.0485H33.0603C33.6389 44.0485 34.1939 43.8186 34.6031 43.4094C35.0122 43.0003 35.2421 42.4453 35.2421 41.8667V20.0485H22.1512C20.9462 20.0485 19.9694 19.0716 19.9694 17.8667V4.77575H6.87846ZM24.333 7.8613L32.1565 15.6848H24.333V7.8613Z" fill="#367BA3"/>
</svg>
