<svg width="41" height="49" viewBox="0 0 41 49" fill="none" xmlns="http://www.w3.org/2000/svg">
<path d="M34.3582 25.5869V27.7115H31.4737V36.4733H28.8219V27.7115H25.9375V25.5869H34.3582Z" fill="#367BA3"/>
<path d="M25.1462 29.0917C25.1462 29.7223 25.0015 30.3013 24.712 30.8285C24.4225 31.3454 23.978 31.7641 23.3783 32.0846C22.7787 32.4051 22.0343 32.5654 21.1452 32.5654H19.5014V36.4733H16.8496V25.5869H21.1452C22.0137 25.5869 22.7477 25.7368 23.3473 26.0366C23.947 26.3365 24.3967 26.75 24.6965 27.2773C24.9963 27.8045 25.1462 28.4093 25.1462 29.0917ZM20.9436 30.4563C21.4502 30.4563 21.8276 30.3374 22.0757 30.0997C22.3238 29.8619 22.4479 29.5259 22.4479 29.0917C22.4479 28.6574 22.3238 28.3214 22.0757 28.0837C21.8276 27.8459 21.4502 27.727 20.9436 27.727H19.5014V30.4563H20.9436Z" fill="#367BA3"/>
<path d="M15.4695 29.0917C15.4695 29.7223 15.3247 30.3013 15.0353 30.8285C14.7458 31.3454 14.3012 31.7641 13.7016 32.0846C13.102 32.4051 12.3576 32.5654 11.4685 32.5654H9.82467V36.4733H7.17285V25.5869H11.4685C12.3369 25.5869 13.0709 25.7368 13.6706 26.0366C14.2702 26.3365 14.7199 26.75 15.0197 27.2773C15.3196 27.8045 15.4695 28.4093 15.4695 29.0917ZM11.2669 30.4563C11.7735 30.4563 12.1508 30.3374 12.3989 30.0997C12.6471 29.8619 12.7711 29.5259 12.7711 29.0917C12.7711 28.6574 12.6471 28.3214 12.3989 28.0837C12.1508 27.8459 11.7735 27.727 11.2669 27.727H9.82467V30.4563H11.2669Z" fill="#367BA3"/>
<path fill-rule="evenodd" clip-rule="evenodd" d="M2.75013 2.20618C3.97764 0.978671 5.6425 0.289062 7.37846 0.289062H22.6512C23.2298 0.289062 23.7848 0.518932 24.194 0.928102L39.4667 16.2008C39.8759 16.61 40.1057 17.165 40.1057 17.7436V41.7436C40.1057 43.4796 39.4161 45.1444 38.1886 46.3719C36.9611 47.5995 35.2962 48.2891 33.5603 48.2891H7.37846C5.6425 48.2891 3.97764 47.5995 2.75013 46.3719C1.52262 45.1444 0.833008 43.4796 0.833008 41.7436V6.83452C0.833008 5.09855 1.52262 3.43369 2.75013 2.20618ZM7.37846 4.6527C6.79981 4.6527 6.24485 4.88257 5.83568 5.29174C5.42651 5.70091 5.19664 6.25586 5.19664 6.83452V41.7436C5.19664 42.3223 5.42651 42.8772 5.83568 43.2864C6.24485 43.6956 6.79981 43.9254 7.37846 43.9254H33.5603C34.1389 43.9254 34.6939 43.6956 35.1031 43.2864C35.5122 42.8772 35.7421 42.3223 35.7421 41.7436V19.9254H22.6512C21.4462 19.9254 20.4694 18.9486 20.4694 17.7436V4.6527H7.37846ZM24.833 7.73825L32.6565 15.5618H24.833V7.73825Z" fill="#367BA3"/>
</svg>
