<svg width="49" height="49" viewBox="0 0 49 49" fill="none" xmlns="http://www.w3.org/2000/svg">
<path fill-rule="evenodd" clip-rule="evenodd" d="M7.40791 5.01989C5.98603 5.01989 4.83336 6.17255 4.83336 7.59443V11.5653H11.3788V5.01989H7.40791ZM7.40791 0.65625C3.57606 0.65625 0.469727 3.76258 0.469727 7.59443V41.7181C0.469727 45.5499 3.57606 48.6562 7.40791 48.6562H41.5315C45.3634 48.6562 48.4697 45.5499 48.4697 41.7181V7.59443C48.4697 3.76258 45.3634 0.65625 41.5315 0.65625H7.40791ZM15.7425 5.01989V22.4744H33.197V5.01989H15.7425ZM37.5606 5.01989V11.5653H44.1061V7.59443C44.1061 6.17255 42.9534 5.01989 41.5315 5.01989H37.5606ZM44.1061 15.929H37.5606V22.4744H44.1061V15.929ZM44.1061 26.8381H37.5606V33.3835H44.1061V26.8381ZM44.1061 37.7472H37.5606V44.2926H41.5315C42.9534 44.2926 44.1061 43.1399 44.1061 41.7181V37.7472ZM33.197 44.2926V26.8381H15.7425V44.2926H33.197ZM11.3788 44.2926V37.7472H4.83336V41.7181C4.83336 43.1399 5.98603 44.2926 7.40791 44.2926H11.3788ZM4.83336 33.3835H11.3788V26.8381H4.83336V33.3835ZM4.83336 22.4744H11.3788V15.929H4.83336V22.4744Z" fill="#367BA3"/>
</svg>
