<svg width="40" height="48" viewBox="0 0 40 48" fill="none" xmlns="http://www.w3.org/2000/svg">
<path d="M27.7564 25.2979L24.9185 36.1843H21.7084L19.9715 29.0197L18.1726 36.1843H14.9625L12.2021 25.2979H15.0401L16.6063 33.2223L18.5448 25.2979H21.4602L23.3212 33.2223L24.9029 25.2979H27.7564Z" fill="#367BA3"/>
<path fill-rule="evenodd" clip-rule="evenodd" d="M2.25013 1.91712C3.47764 0.689608 5.1425 0 6.87846 0H22.1512C22.7298 0 23.2848 0.229869 23.694 0.63904L38.9667 15.9118C39.3759 16.3209 39.6057 16.8759 39.6057 17.4545V41.4545C39.6057 43.1905 38.9161 44.8554 37.6886 46.0829C36.4611 47.3104 34.7962 48 33.0603 48H6.87846C5.1425 48 3.47764 47.3104 2.25013 46.0829C1.02262 44.8554 0.333008 43.1905 0.333008 41.4545V6.54545C0.333008 4.80949 1.02262 3.14463 2.25013 1.91712ZM6.87846 4.36364C6.29981 4.36364 5.74485 4.59351 5.33568 5.00268C4.92651 5.41185 4.69664 5.9668 4.69664 6.54545V41.4545C4.69664 42.0332 4.92651 42.5882 5.33568 42.9973C5.74485 43.4065 6.29981 43.6364 6.87846 43.6364H33.0603C33.6389 43.6364 34.1939 43.4065 34.6031 42.9973C35.0122 42.5882 35.2421 42.0332 35.2421 41.4545V19.6364H22.1512C20.9462 19.6364 19.9694 18.6595 19.9694 17.4545V4.36364H6.87846ZM24.333 7.44919L32.1565 15.2727H24.333V7.44919Z" fill="#367BA3"/>
</svg>
