<svg width="40" height="49" viewBox="0 0 40 49" fill="none" xmlns="http://www.w3.org/2000/svg">
<path d="M8.49609 9.88267V4.04883L13.7466 6.96575L8.49609 9.88267Z" fill="#367BA3"/>
<path d="M11.9964 11.3411L17.2469 8.42421V14.2581L11.9964 11.3411Z" fill="#367BA3"/>
<path d="M8.49609 18.6334V12.7996L13.7466 15.7165L8.49609 18.6334Z" fill="#367BA3"/>
<path d="M11.9964 20.0919L17.2469 17.175V23.0088L11.9964 20.0919Z" fill="#367BA3"/>
<path d="M8.49609 27.3842V21.5504L13.7466 24.4673L8.49609 27.3842Z" fill="#367BA3"/>
<path d="M11.9964 28.8427L17.2469 25.9258V31.7596L11.9964 28.8427Z" fill="#367BA3"/>
<path fill-rule="evenodd" clip-rule="evenodd" d="M12.8722 43.426C15.2932 43.426 17.5976 41.3259 17.2476 38.6715C17.1017 37.563 15.8183 33.9752 15.8183 33.9752L10.0136 30.7666C10.0136 30.7666 8.70099 36.4546 8.49681 38.6715C8.29262 40.9175 10.4511 43.426 12.8722 43.426ZM12.8724 36.4551C14.0975 36.4551 15.0892 37.4468 15.0892 38.6719C15.0892 39.9262 14.0975 40.918 12.8724 40.918C11.6473 40.918 10.6555 39.9262 10.6555 38.6719C10.6555 37.4468 11.6473 36.4551 12.8724 36.4551Z" fill="#367BA3"/>
<path fill-rule="evenodd" clip-rule="evenodd" d="M2.25013 2.77161C3.47764 1.5441 5.1425 0.854492 6.87846 0.854492H22.1512C22.7298 0.854492 23.2848 1.08436 23.694 1.49353L38.9667 16.7663C39.3759 17.1754 39.6057 17.7304 39.6057 18.309V42.309C39.6057 44.045 38.9161 45.7099 37.6886 46.9374C36.4611 48.1649 34.7962 48.8545 33.0603 48.8545H6.87846C5.1425 48.8545 3.47764 48.1649 2.25013 46.9374C1.02262 45.7099 0.333008 44.045 0.333008 42.309V7.39995C0.333008 5.66398 1.02262 3.99912 2.25013 2.77161ZM6.87846 5.21813C6.29981 5.21813 5.74485 5.448 5.33568 5.85717C4.92651 6.26634 4.69664 6.82129 4.69664 7.39995V42.309C4.69664 42.8877 4.92651 43.4426 5.33568 43.8518C5.74485 44.261 6.29981 44.4909 6.87846 44.4909H33.0603C33.6389 44.4909 34.1939 44.261 34.6031 43.8518C35.0122 43.4426 35.2421 42.8877 35.2421 42.309V20.4909H22.1512C20.9462 20.4909 19.9694 19.514 19.9694 18.309V5.21813H6.87846ZM24.333 8.30368L32.1565 16.1272H24.333V8.30368Z" fill="#367BA3"/>
</svg>
