<svg width="49" height="48" viewBox="0 0 49 48" fill="none" xmlns="http://www.w3.org/2000/svg">
<path fill-rule="evenodd" clip-rule="evenodd" d="M16.8126 0.0908203C8.0628 0.0908203 0.969727 7.1839 0.969727 15.9337V32.1537C0.969727 40.9034 8.0628 47.9965 16.8126 47.9965H33.1269C41.8767 47.9965 48.9697 40.9034 48.9697 32.1537V15.9337C48.9697 7.1839 41.8767 0.0908203 33.1269 0.0908203H16.8126ZM10.3057 17.8197C10.3057 16.726 11.1923 15.8393 12.286 15.8393H26.3371C29.1495 15.8393 31.4295 18.1193 31.4295 20.9317V30.2676C31.4295 31.3614 30.5428 32.248 29.4491 32.248H15.398C12.5856 32.248 10.3057 29.9681 10.3057 27.1557V17.8197ZM32.5611 21.842C32.5611 21.0266 32.9249 20.2537 33.5534 19.7342L37.7812 16.2392C38.519 15.6293 39.6338 16.1541 39.6338 17.1114V30.9063C39.6338 31.8594 38.5276 32.3856 37.7881 31.7842L33.5703 28.3537C32.9318 27.8343 32.5611 27.0551 32.5611 26.232V21.842Z" fill="#367BA3"/>
</svg>
