<svg xmlns="http://www.w3.org/2000/svg" viewBox="0 0 12.48 12.5"><defs><style>.cls-1{fill:#2ca0c3;}</style></defs><g id="Layer_2" data-name="Layer 2"><path class="cls-1" d="M6.43,8.5l-.07-.05-.08,0-.1,0-.09,0L6,8.38l-.08,0-.09.06-.06,0L2.43,11.64a.49.49,0,0,0,0,.7.49.49,0,0,0,.37.16.51.51,0,0,0,.34-.14l3-2.81,3,2.81a.49.49,0,0,0,.34.14.46.46,0,0,0,.36-.16.49.49,0,0,0,0-.7Z"/><path class="cls-1" d="M5.75,4l.1.07.05,0a.41.41,0,0,0,.19,0,.43.43,0,0,0,.19,0l0,0L6.43,4,9.75.86a.49.49,0,0,0,0-.7.49.49,0,0,0-.7,0L6.09,3,3.12.14a.5.5,0,0,0-.71,0,.49.49,0,0,0,0,.7Z"/><path class="cls-1" d="M12,5.74H.5a.5.5,0,0,0,0,1H12a.5.5,0,0,0,0-1Z"/></g></svg>