<svg xmlns="http://www.w3.org/2000/svg" viewBox="0 0 12.48 12.5"><defs><style>.cls-1{fill:#2ca0c3;}</style></defs><g id="Layer_2" data-name="Layer 2"><path class="cls-1" d="M9.06,8.5l-3,2.81-3-2.81a.5.5,0,1,0-.69.72l3.31,3.14a.53.53,0,0,0,.1.06l.06,0a.58.58,0,0,0,.19,0,.65.65,0,0,0,.19,0l0,0a.33.33,0,0,0,.1-.06L9.74,9.22a.5.5,0,0,0-.68-.72Z"/><path class="cls-1" d="M2.77,4.14A.52.52,0,0,0,3.12,4l3-2.81L9.06,4a.49.49,0,0,0,.34.14A.5.5,0,0,0,9.76,4a.5.5,0,0,0,0-.71L6.43.13l-.07,0a.26.26,0,0,0-.09,0,.15.15,0,0,0-.09,0L6.09,0,6,0A.15.15,0,0,0,5.9,0l-.09,0-.07,0L2.43,3.27a.5.5,0,0,0,0,.71A.52.52,0,0,0,2.77,4.14Z"/><path class="cls-1" d="M12,5.74H.5a.5.5,0,0,0-.5.5.5.5,0,0,0,.5.5H12a.5.5,0,0,0,.5-.5A.5.5,0,0,0,12,5.74Z"/></g></svg>